<?xml version="1.0" encoding="UTF-8"?><svg id="Layer_2" xmlns="http://www.w3.org/2000/svg" viewBox="0 0 219.16 216.07"><defs><style>.cls-1{fill:#ea1917;fill-rule:evenodd;}</style></defs><g id="Layer_1-2"><path class="cls-1" d="M148.61,209.02c-12.12,4.56-25.28,7.05-39.03,7.05-9.07,0-17.87-1.08-26.3-3.13l6.27-39.44c13.57,2.79,26.05,2.22,37.11-.83l21.95,36.35ZM171.24,197.36c28.93-19.45,47.93-52.2,47.93-89.33C219.16,48.37,170.1,0,109.58,0S0,48.37,0,108.04c0,41.48,23.71,77.5,58.51,95.61l13.61-52.07c18.6,8.83,33.75,9.99,45.86,6.72l-25.37-42.01-7.61,4.32-19.94,3.86-8.64-14.77,11.52-14.54,34.68-20.9,17.51-3.07,8.99,14.09-6.68,12.16-12.21,7.5,27.8,42.13c12.38-11.45,18.6-27.98,20.04-38.8,5.79-43.53-48.92-82.39-95.25-60.31,56.31-35.7,106.14-1.85,115.71,43.59,5.34,25.37-6.69,54.66-30.27,71.02l22.97,34.81Z"/></g></svg>